<svg width="335" height="75" viewBox="0 0 335 75" fill="none" xmlns="http://www.w3.org/2000/svg">
<path fill-rule="evenodd" clip-rule="evenodd" d="M49 24.7174C44.921 26.2084 40 32.9254 40 37.0014C40 40.5214 43.855 46.8854 46.96 48.4904C51.084 50.6234 57.935 50.4024 61 48.0394C63.464 46.1394 63.471 46.0904 61.514 44.6524C60.175 43.6684 58.975 43.4894 57.83 44.1024C52.279 47.0734 46 43.3814 46 37.1464C46 30.6824 52.346 26.9854 58.13 30.0804C59.584 30.8594 60.518 30.8264 61.564 29.9584C63.703 28.1834 63.35 27.4054 59.599 25.6254C56.233 24.0284 51.901 23.6574 49 24.7174ZM84.5 24.9704C81.349 26.2824 77.316 31.2254 76.715 34.5114C75.835 39.3184 77.03 42.9744 80.67 46.6144C83.638 49.5824 84.706 50.0114 89.129 50.0114C94.896 50.0114 99.12 47.6144 101.515 42.9824C106.87 32.6274 95.363 20.4484 84.5 24.9704ZM119 26.5114C119 28.8954 119.274 29.0114 124.889 29.0114C131.926 29.0114 134.801 30.8874 135.621 36.0114C136.046 38.6674 135.659 40.1754 134.018 42.2614C132.059 44.7514 131.248 45.0114 125.427 45.0114C119.238 45.0114 119 45.1044 119 47.5114C119 49.9254 119.227 50.0114 125.596 50.0114C130.672 50.0114 132.864 49.5324 135.111 47.9324C140.85 43.8454 142.448 37.3454 139.248 31.0964C136.865 26.4404 131.9 24.0114 124.766 24.0114C119.282 24.0114 119 24.1334 119 26.5114ZM157 37.0114C157 44.1614 157.338 49.9974 157.75 49.9794C158.162 49.9624 159.287 49.3504 160.25 48.6194C161.74 47.4884 162 45.5644 162 35.6514V24.0114H159.5H157V37.0114ZM179 26.5114C179 28.9924 179.067 29.0114 188 29.0114C196.933 29.0114 197 28.9924 197 26.5114C197 24.0304 196.933 24.0114 188 24.0114C179.067 24.0114 179 24.0304 179 26.5114ZM214 37.0344V50.0574L216.5 48.4194C218.924 46.8314 219 46.4364 219 35.3964V24.0114H216.5H214V37.0344ZM241.418 24.9804C238.44 26.1854 234.283 31.4474 233.502 35.0014C232.622 39.0084 235.967 45.9694 239.883 48.2834C243.822 50.6104 250.823 50.4894 254 48.0394C256.464 46.1394 256.471 46.0904 254.514 44.6524C253.175 43.6684 251.975 43.4894 250.83 44.1024C248.404 45.4004 243.791 45.1694 241.789 43.6484C239.549 41.9454 237.893 37.4894 238.677 35.2704C240.58 29.8794 246.3 27.4964 251.13 30.0804C252.584 30.8594 253.518 30.8264 254.564 29.9584C256.703 28.1834 256.35 27.4054 252.599 25.6254C248.925 23.8824 244.731 23.6404 241.418 24.9804ZM275.5 37.0114L268.986 50.0114H272.018C274.809 50.0114 275.344 49.4034 278.719 42.3914L282.386 34.7724L285.857 42.3914C288.993 49.2774 289.6 50.0114 292.164 50.0114C293.724 50.0114 295 49.7294 295 49.3844C295 48.5144 282.799 24.0114 282.365 24.0114C282.172 24.0114 279.083 29.8614 275.5 37.0114ZM95.411 32.0884C96.835 33.7804 98 36.1894 98 37.4424C98 41.0214 93.665 45.0144 89.798 44.9964C85.991 44.9784 85.017 44.4354 82.692 41.0384C80.368 37.6424 80.564 35.6834 83.589 32.0884C87.174 27.8274 91.826 27.8274 95.411 32.0884ZM179 42.4714C179 49.8474 179.054 50.0114 181.5 50.0114C183.83 50.0114 184 49.6744 184 45.0614V40.1114L189.75 39.8114C194.733 39.5514 195.5 39.2444 195.5 37.5114C195.5 35.6964 194.737 35.4844 187.25 35.2214L179 34.9304V42.4714Z" fill="black"/>
</svg>
